<svg width="1200" height="630" viewBox="0 0 1200 630" fill="none" xmlns="http://www.w3.org/2000/svg">
  <rect width="1200" height="630" rx="64" fill="#fff7f4"/>
  <g transform="translate(128 215)">
    <text x="0" y="126" fill="#171717" font-family="Arial, Helvetica, sans-serif" font-size="156" font-weight="900" letter-spacing="0">EASY</text>
    <g transform="translate(520 16)" fill="#C21318">
      <rect x="0" y="46" width="92" height="18" rx="9"/>
      <rect x="0" y="86" width="72" height="18" rx="9"/>
      <rect x="0" y="126" width="54" height="18" rx="9"/>
    </g>
    <g transform="translate(640 0)">
      <path d="M0 18C0 8.059 8.059 0 18 0H96C158.96 0 210 51.04 210 114C210 176.96 158.96 228 96 228H18C8.059 228 0 219.941 0 210V18Z" fill="#C21318"/>
      <path d="M60 112L91 143L154 76" stroke="#ffffff" stroke-width="28" stroke-linecap="round" stroke-linejoin="round"/>
    </g>
    <text x="870" y="180" fill="#C21318" font-family="Arial, Helvetica, sans-serif" font-size="156" font-weight="900" letter-spacing="0">ICK</text>
  </g>
</svg>
